<svg xmlns="http://www.w3.org/2000/svg" viewBox="0 0 960 360" role="img" aria-labelledby="t d"><title id="t">网络分层与封装</title><desc id="d">应用数据逐层添加传输、网络和链路首部，在接收端反向移除。</desc><defs><marker id="a" markerWidth="8" markerHeight="8" refX="7" refY="4" orient="auto"><path d="M0 0L8 4L0 8z" fill="#2563eb"/></marker></defs><rect width="960" height="360" rx="20" fill="#f8fafc"/><g font-family="system-ui,sans-serif" text-anchor="middle"><text x="180" y="40" font-size="24" font-weight="700">发送端：封装</text><text x="780" y="40" font-size="24" font-weight="700">接收端：解封装</text>
<g stroke-width="3"><rect x="90" y="70" width="180" height="48" rx="8" fill="#dbeafe" stroke="#2563eb"/><rect x="70" y="132" width="220" height="48" rx="8" fill="#dcfce7" stroke="#16a34a"/><rect x="50" y="194" width="260" height="48" rx="8" fill="#fef3c7" stroke="#d97706"/><rect x="30" y="256" width="300" height="48" rx="8" fill="#fee2e2" stroke="#dc2626"/><rect x="690" y="256" width="240" height="48" rx="8" fill="#fee2e2" stroke="#dc2626"/><rect x="710" y="194" width="200" height="48" rx="8" fill="#fef3c7" stroke="#d97706"/><rect x="730" y="132" width="160" height="48" rx="8" fill="#dcfce7" stroke="#16a34a"/><rect x="750" y="70" width="120" height="48" rx="8" fill="#dbeafe" stroke="#2563eb"/></g><g font-size="18"><text x="180" y="101">应用数据</text><text x="180" y="163">传输首部 + 数据</text><text x="180" y="225">IP 首部 + 段</text><text x="180" y="287">链路首部 + 分组</text><text x="810" y="287">链路帧</text><text x="810" y="225">IP 分组</text><text x="810" y="163">传输段</text><text x="810" y="101">应用数据</text></g><path d="M350 280H660" stroke="#2563eb" stroke-width="5" marker-end="url(#a)"/><text x="505" y="255" font-size="20">物理链路 / 路由器</text></g></svg>
