<svg xmlns="http://www.w3.org/2000/svg" width="720" height="420" viewBox="0 0 720 420" role="img" aria-label="虚拟设施原图：涂装表面的暗线，尚不能判断为结构裂纹">
<defs><linearGradient id="steel" x2=".8" y2="1"><stop stop-color="#c5c5ad"/><stop offset=".55" stop-color="#89928b"/><stop offset="1" stop-color="#687b7b"/></linearGradient><pattern id="grain" width="17" height="17" patternUnits="userSpaceOnUse"><path d="M0 3h9M10 12h5" stroke="#e5e4cb" stroke-opacity=".17"/><circle cx="5" cy="11" r=".8" fill="#3c585c" opacity=".2"/></pattern></defs>
<rect width="720" height="420" fill="url(#steel)"/><rect width="720" height="420" fill="url(#grain)"/><path d="M0 78H720M0 349H720" stroke="#465e61" stroke-width="3" opacity=".5"/><path d="M167 0V420M556 0V420" stroke="#4d6262" stroke-width="7"/><path d="M173 0V420M563 0V420" stroke="#d7d8bb" stroke-width="2" opacity=".6"/>
<g fill="#496466" stroke="#a2ae9b" stroke-width="3"><circle cx="142" cy="51" r="8"/><circle cx="142" cy="373" r="8"/><circle cx="582" cy="51" r="8"/><circle cx="582" cy="373" r="8"/></g>
<path d="M356 87L348 125L365 152L350 181L369 204L358 223L375 250L358 286L366 329" fill="none" stroke="#736951" stroke-width="9" opacity=".2"/><path d="M356 87L348 125L365 152L350 181L369 204L358 223L375 250L358 286L366 329" fill="none" stroke="#314349" stroke-width="2.7"/><path d="M369 204L402 191L419 200M358 286L335 299" fill="none" stroke="#3c4f51" stroke-width="1.3"/>
<path d="M305 120Q320 83 340 101M398 294Q420 319 437 300" fill="none" stroke="#9d7960" stroke-width="15" opacity=".2"/><rect x="22" y="20" width="210" height="33" rx="3" fill="#173b41" opacity=".85"/><text x="35" y="42" font-family="sans-serif" fill="#e9f3df" font-size="15">P2 / 正面光照 · 原始画面</text><path d="M580 318h90m-90-5v10m90-10v10" stroke="#eaf1df" stroke-width="2"/><text x="588" y="344" fill="#eaf1df" font-size="12" font-family="sans-serif">示意比例 · 非实测</text></svg>
